<svg viewBox="0 0 159 122" fill="none" xmlns="http://www.w3.org/2000/svg">
<path d="M103.018 -8.87883e-05C72.0997 -9.14752e-05 47.0357 24.9148 47.0357 55.6489C47.0357 86.383 72.0997 111.298 103.018 111.298C133.936 111.298 159 86.383 159 55.6489C159 24.9148 133.936 -8.61015e-05 103.018 -8.87883e-05Z" fill="#F6F7F7"/>
<path d="M40.1398 4.2593C23.4559 4.2593 9.93095 17.7038 9.93095 34.2883C9.93094 50.8729 23.4559 64.3174 40.1398 64.3174C56.8237 64.3174 70.3486 50.8729 70.3486 34.2883C70.3486 17.7038 56.8237 4.2593 40.1398 4.2593Z" fill="#F6F7F7"/>
<path d="M43.1115 36.2899C19.3016 36.2899 -0.000169626 55.4768 -0.000171707 79.1449C-0.000173789 102.813 19.3016 122 43.1115 122C66.9214 122 86.2231 102.813 86.2231 79.145C86.2232 55.4768 66.9214 36.2899 43.1115 36.2899Z" fill="#F6F7F7"/>
<rect x="17.2261" y="18.728" width="122.73" height="82.9384" rx="17.3455" fill="#9799A3"/>
<rect x="23.6851" y="24.6143" width="109.811" height="70.6314" rx="11.5636" fill="#DCDDE0"/>
<rect width="99.1685" height="60.9998" rx="5.78182" transform="matrix(-1 0 0 1 128.129 29.6284)" fill="white" fill-opacity="0.95"/>
<rect x="49.1455" y="77.5566" width="61.4318" height="6.09998" rx="3.04999" fill="#DDE4F8"/>
<rect x="49.1455" y="39.2139" width="11.4088" height="34.857" rx="1.75519" fill="#9EB2EB"/>
<rect x="65.8198" y="57.3965" width="11.4088" height="16.6744" rx="1.75519" fill="#B6C5F0"/>
<rect x="82.4941" y="46.8652" width="11.4088" height="27.2055" rx="1.75519" fill="#B6C5F0"/>
<rect x="99.1685" y="39.2139" width="11.4088" height="34.857" rx="1.75519" fill="#B6C5F0"/>
<path d="M132.424 106.279C138.776 106.279 143.926 101.165 143.926 94.8573C143.926 88.5492 138.776 83.4355 132.424 83.4355C126.071 83.4355 120.921 88.5492 120.921 94.8573C120.921 101.165 126.071 106.279 132.424 106.279Z" fill="#3D65D6"/>
<path d="M132.511 98.0082C131.744 98.0082 131.123 98.6255 131.123 99.3869C131.123 100.148 131.744 100.766 132.511 100.766C133.278 100.766 133.899 100.148 133.899 99.3869C133.899 98.6255 133.278 98.0082 132.511 98.0082Z" fill="white"/>
<path d="M131.123 95.2424C131.123 96.0038 131.743 96.6211 132.509 96.6211C133.275 96.6211 133.896 96.0038 133.896 95.2424L133.896 90.5079C133.896 89.7465 133.275 89.1292 132.509 89.1292C131.743 89.1292 131.123 89.7465 131.123 90.5079L131.123 95.2424Z" fill="white"/>
</svg>
