<svg viewBox="0 0 159 139" fill="none" xmlns="http://www.w3.org/2000/svg">
<path d="M103.018 8.00006C72.0997 8.00006 47.0357 33.0914 47.0357 64.0431C47.0357 94.9948 72.0997 120.086 103.018 120.086C133.936 120.086 159 94.9949 159 64.0431C159 33.0914 133.936 8.00007 103.018 8.00006Z" fill="#F1F6FE"/>
<path d="M40.1401 12.2898C23.4562 12.2898 9.93125 25.8295 9.93125 42.5315C9.93125 59.2335 23.4562 72.7732 40.1401 72.7732C56.824 72.7732 70.3489 59.2335 70.3489 42.5315C70.3489 25.8295 56.824 12.2898 40.1401 12.2898Z" fill="#F1F6FE"/>
<path d="M43.1117 44.5467C19.3018 44.5467 5.85047e-06 63.8694 3.76894e-06 87.7052C1.68741e-06 111.541 19.3017 130.864 43.1117 130.864C66.9216 130.864 86.2233 111.541 86.2233 87.7052C86.2233 63.8694 66.9216 44.5467 43.1117 44.5467Z" fill="#F1F6FE"/>
<rect x="17.226" y="18.8608" width="122.73" height="83.5257" rx="17.3455" fill="#515565"/>
<rect x="23.6854" y="24.7886" width="109.811" height="71.1316" rx="11.5636" fill="#DDE4F8"/>
<rect width="13.9955" height="60.8929" rx="5.78182" transform="matrix(-1 0 0 1 43.0639 30.1775)" fill="#9FC3F9"/>
<ellipse cx="87.7414" cy="60.3538" rx="30.1442" ry="30.177" fill="#E60000"/>
<rect x="47.9079" y="30.1768" width="78.5904" height="60.8929" rx="5.78182" fill="#9FC3F9"/>
<path d="M133.631 110.568C142.03 110.568 148.838 103.752 148.838 95.3443C148.838 86.9368 142.03 80.1211 133.631 80.1211C125.233 80.1211 118.425 86.9368 118.425 95.3443C118.425 103.752 125.233 110.568 133.631 110.568Z" fill="#FFCC28"/>
<path d="M133.631 99.4235C132.618 99.4235 131.796 100.246 131.796 101.261C131.796 102.276 132.618 103.099 133.631 103.099C134.645 103.099 135.467 102.276 135.467 101.261C135.467 100.246 134.645 99.4235 133.631 99.4235Z" fill="#515565"/>
<path d="M131.796 95.7376C131.796 96.7525 132.616 97.5752 133.629 97.5752C134.641 97.5752 135.462 96.7525 135.462 95.7376L135.462 89.4274C135.462 88.4125 134.641 87.5898 133.629 87.5898C132.616 87.5898 131.796 88.4125 131.796 89.4274L131.796 95.7376Z" fill="#515565"/>
<path fill-rule="evenodd" clip-rule="evenodd" d="M99.9681 74.6313C93.674 68.3303 83.4692 68.3303 77.1751 74.6313C76.3343 75.473 74.971 75.473 74.1301 74.6313C73.2893 73.7895 73.2893 72.4247 74.1301 71.5829C82.1059 63.5984 95.0373 63.5984 103.013 71.5829C103.854 72.4247 103.854 73.7895 103.013 74.6313C102.172 75.473 100.809 75.473 99.9681 74.6313Z" fill="white"/>
<rect width="19.2256" height="4.30866" rx="2.15433" transform="matrix(0.706722 0.707491 -0.706722 0.707491 69.2547 44.188)" fill="white"/>
<rect width="19.2256" height="4.30866" rx="2.15433" transform="matrix(0.706722 -0.707491 0.706722 0.707491 66.3011 57.79)" fill="white"/>
<rect width="19.2256" height="4.30866" rx="2.15433" transform="matrix(0.706722 0.707491 -0.706722 0.707491 96.102 44.188)" fill="white"/>
<rect width="19.2256" height="4.30866" rx="2.15433" transform="matrix(0.706722 -0.707491 0.706722 0.707491 93.1483 57.79)" fill="white"/>
</svg>
