<svg viewBox="0 0 24 24" fill="none" xmlns="http://www.w3.org/2000/svg">
<path fill-rule="evenodd" clip-rule="evenodd" d="M4.73388 9.10001L6.54214 9.95453C6.18675 10.7066 6 11.5301 6 12.3821C6 15.5245 8.5474 18.0719 11.6898 18.0719C11.7938 18.0719 11.8974 18.0692 12.0006 18.0636L12 15.9343C12 15.8356 12.0292 15.739 12.084 15.6569C12.2201 15.4527 12.4805 15.3809 12.6981 15.4751L12.7774 15.5182L17.376 18.584C17.4309 18.6206 17.478 18.6677 17.5146 18.7227C17.6508 18.9269 17.6169 19.1949 17.4463 19.3595L17.376 19.416L12.7774 22.4818C12.6952 22.5365 12.5987 22.5657 12.5 22.5657C12.2545 22.5657 12.0504 22.3889 12.0081 22.1556L12 22.0657V20.064L11.6898 20.0719C7.52451 20.0719 4.13271 16.7602 4.0038 12.6263L4 12.3821C4 11.233 4.25289 10.1178 4.73388 9.10001ZM11.5 1.43427C11.7455 1.43427 11.9496 1.61114 11.9919 1.84439L12 1.93427V3.93601L12.3102 3.92808C16.4755 3.92808 19.8673 7.23977 19.9962 11.3738L20 11.6179C20 12.767 19.7471 13.8822 19.2661 14.9L17.4579 14.0455C17.8132 13.2935 18 12.4699 18 11.6179C18 8.47549 15.4526 5.92808 12.3102 5.92808C12.2062 5.92808 12.1026 5.93086 11.9994 5.9364L12 8.06575C12 8.16446 11.9708 8.26096 11.916 8.3431C11.7799 8.54733 11.5195 8.61908 11.3019 8.52492L11.2226 8.48177L6.62404 5.41603C6.56911 5.37941 6.52198 5.33228 6.48536 5.27736C6.34921 5.07312 6.38313 4.80515 6.55373 4.64054L6.62404 4.58398L11.2226 1.51824C11.3048 1.46348 11.4013 1.43427 11.5 1.43427Z" fill="#1C1B1F" fill-opacity="0.7"/>
</svg>
