<svg viewBox="0 0 159 122" fill="none" xmlns="http://www.w3.org/2000/svg">
<path d="M103.018 8.66877e-05C72.1 8.40009e-05 47.036 24.915 47.036 55.6492C47.036 86.3834 72.1 111.298 103.018 111.298C133.936 111.298 159 86.3834 159 55.6492C159 24.9151 133.936 8.93746e-05 103.018 8.66877e-05Z" fill="#414451"/>
<path d="M40.1399 4.25913C23.4561 4.25913 9.93114 17.7036 9.93114 34.2883C9.93114 50.8729 23.4561 64.3174 40.1399 64.3174C56.8237 64.3174 70.3486 50.8729 70.3486 34.2883C70.3486 17.7036 56.8237 4.25914 40.1399 4.25913Z" fill="#414451"/>
<path d="M43.1116 36.2897C19.3018 36.2897 0.000112662 55.4766 0.00011058 79.1448C0.000108499 102.813 19.3018 122 43.1116 122C66.9215 122 86.2231 102.813 86.2231 79.1448C86.2232 55.4766 66.9215 36.2897 43.1116 36.2897Z" fill="#414451"/>
<rect x="17.2266" y="18.728" width="122.73" height="82.9386" rx="17.2235" fill="#202228"/>
<rect x="23.686" y="24.6143" width="109.811" height="70.6316" rx="11.4824" fill="#414451"/>
<ellipse cx="87.7413" cy="59.9298" rx="30.1442" ry="29.9649" fill="#E60000"/>
<rect x="30.4409" y="30" width="96" height="60" rx="5.74118" fill="#747784"/>
<rect x="49.5879" y="77.5566" width="61.4318" height="6.09998" rx="3.04999" fill="#515565"/>
<rect x="49.5879" y="39.2139" width="11.4088" height="34.857" rx="1.75519" fill="#414451"/>
<rect x="66.2622" y="57.3965" width="11.4088" height="16.6744" rx="1.75519" fill="#414451"/>
<rect x="82.9365" y="46.8652" width="11.4088" height="27.2055" rx="1.75519" fill="#414451"/>
<rect x="99.6108" y="39.2139" width="11.4088" height="34.857" rx="1.75519" fill="#414451"/>
<path d="M132.865 106.279C139.218 106.279 144.368 101.165 144.368 94.8573C144.368 88.5492 139.218 83.4355 132.865 83.4355C126.513 83.4355 121.363 88.5492 121.363 94.8573C121.363 101.165 126.513 106.279 132.865 106.279Z" fill="#3D65D6"/>
<path d="M132.953 98.0082C132.186 98.0082 131.564 98.6255 131.564 99.3869C131.564 100.148 132.186 100.766 132.953 100.766C133.72 100.766 134.341 100.148 134.341 99.3869C134.341 98.6255 133.72 98.0082 132.953 98.0082Z" fill="white"/>
<path d="M131.565 95.2424C131.565 96.0038 132.185 96.6211 132.951 96.6211C133.717 96.6211 134.337 96.0038 134.337 95.2424L134.337 90.5079C134.337 89.7465 133.717 89.1292 132.951 89.1292C132.185 89.1292 131.565 89.7465 131.565 90.5079L131.565 95.2424Z" fill="white"/>
</svg>
