<svg viewBox="0 0 16 16" fill="none" xmlns="http://www.w3.org/2000/svg">
<g clip-path="url(#clip0_163_1090)">
<path fill-rule="evenodd" clip-rule="evenodd" d="M13.334 12.0001H12.0007V9.33341H13.334V12.0001ZM4.00065 12.0001H3.33398C2.96732 12.0001 2.66732 11.7001 2.66732 11.3334L2.66732 9.33341H4.00065V12.0001ZM8.00065 0.666748C4.68732 0.666748 1.33398 3.35341 1.33398 6.66675L1.33398 11.3334C1.33398 12.4401 2.22732 13.3334 3.33398 13.3334H3.98441C4.72976 13.3334 5.33398 12.7292 5.33398 11.9838V9.34966C5.33398 8.60431 4.72976 8.00008 3.98441 8.00008H2.66732V6.66675C2.66732 4.08675 5.42065 2.00008 8.00065 2.00008C10.5807 2.00008 13.334 4.08675 13.334 6.66675V8.00008H12.0169C11.2715 8.00008 10.6673 8.60431 10.6673 9.34966V11.9838C10.6673 12.7292 11.2715 13.3334 12.0169 13.3334H13.334V14.0001H8.66732L8.66732 15.3334H12.6673C13.774 15.3334 14.6673 14.4401 14.6673 13.3334V6.66675C14.6673 3.35341 11.314 0.666748 8.00065 0.666748ZM8.66732 15.3334H8.00065C7.63398 15.3334 7.33398 15.0334 7.33398 14.6667L7.33398 13.3334C7.33398 12.9652 7.63246 12.6667 8.00065 12.6667C8.36884 12.6667 8.66732 12.9652 8.66732 13.3334L8.66732 15.3334Z" fill="#1C1B1F"/>
</g>
<defs>
<clipPath id="clip0_163_1090">
<rect width="16" height="16" fill="white"/>
</clipPath>
</defs>
</svg>
