<svg viewBox="0 0 11 14" fill="none" xmlns="http://www.w3.org/2000/svg">
<path d="M5.33333 0C8.28764 0 10.6667 2.51371 10.6667 5.59615C10.6667 7.6566 9.01775 10.0764 5.77539 12.9426C5.52271 13.1659 5.14396 13.1659 4.8918 12.943C1.64892 10.0764 0 7.6566 0 5.59615C0 2.51371 2.37902 0 5.33333 0ZM5.33333 1.33054C3.13299 1.33054 1.33333 3.23208 1.33333 5.59615C1.33333 7.08615 2.64941 9.09392 5.33333 11.5491C7.94484 9.16018 9.2612 7.195 9.33045 5.71809L9.33333 5.59615C9.33333 3.23208 7.53368 1.33054 5.33333 1.33054ZM5.33333 3.33333C6.4379 3.33333 7.33333 4.22876 7.33333 5.33333C7.33333 6.4379 6.4379 7.33333 5.33333 7.33333C4.22876 7.33333 3.33333 6.4379 3.33333 5.33333C3.33333 4.22876 4.22876 3.33333 5.33333 3.33333ZM5.33333 4.66667C4.96514 4.66667 4.66667 4.96514 4.66667 5.33333C4.66667 5.70152 4.96514 6 5.33333 6C5.70152 6 6 5.70152 6 5.33333C6 4.96514 5.70152 4.66667 5.33333 4.66667Z" fill="#1C1B1F"/>
</svg>
