<svg viewBox="0 0 12 13" fill="none" xmlns="http://www.w3.org/2000/svg">
<path fill-rule="evenodd" clip-rule="evenodd" d="M6 0C6.55333 0 7 0.446902 7 1.00053C9.09333 1.4541 10.6667 3.32175 10.6667 5.55626V8.89135L12 10.2254V10.8924L7.97469 10.8925C7.86535 11.8911 7.02079 12.6667 5.99333 12.6667C4.96587 12.6667 4.12132 11.8911 4.01198 10.8925L0 10.8924L0 10.2254L1.33333 8.89135L1.33333 5.55626C1.33333 3.32175 2.90667 1.4541 5 1.00053C5 0.446902 5.44667 0 6 0ZM6 2.22117C4.16 2.22117 2.66667 3.59078 2.66667 5.27833L2.66667 9.55836L9.33333 9.55836L9.33333 5.27833C9.33333 3.59078 7.84 2.22117 6 2.22117Z" fill="black"/>
</svg>
