<svg viewBox="0 0 159 123" fill="none" xmlns="http://www.w3.org/2000/svg">
<path d="M103.018 0.000307906C72.0997 0.0003052 47.0357 25.0916 47.0357 56.0434C47.0357 86.9951 72.0997 112.086 103.018 112.086C133.936 112.086 159 86.9951 159 56.0434C159 25.0916 133.936 0.000310612 103.018 0.000307906Z" fill="#282A32"/>
<path d="M40.14 4.28955C23.4562 4.28955 9.93119 17.8292 9.93119 34.5312C9.93119 51.2333 23.4562 64.7729 40.14 64.7729C56.8239 64.7729 70.3489 51.2333 70.3489 34.5313C70.3489 17.8292 56.8239 4.28955 40.14 4.28955Z" fill="#282A32"/>
<path d="M43.1117 36.5467C19.3018 36.5467 8.21444e-05 55.8694 8.00629e-05 79.7052C7.79814e-05 103.541 19.3018 122.864 43.1117 122.864C66.9216 122.864 86.2234 103.541 86.2234 79.7052C86.2234 55.8694 66.9217 36.5467 43.1117 36.5467Z" fill="#282A32"/>
<rect x="17.226" y="18.8611" width="122.73" height="83.5257" rx="17.3455" fill="#202228"/>
<rect x="23.6854" y="24.7886" width="109.811" height="71.1316" rx="11.5636" fill="#414451"/>
<rect width="13.9955" height="60.8929" rx="5.78182" transform="matrix(-1 0 0 1 43.0638 30.1772)" fill="#747784"/>
<ellipse cx="87.7413" cy="60.354" rx="30.1442" ry="30.177" fill="#E60000"/>
<rect x="47.9078" y="30.177" width="78.5904" height="60.8929" rx="5.78182" fill="#747784"/>
<path d="M133.631 110.568C142.03 110.568 148.838 103.752 148.838 95.3446C148.838 86.937 142.03 80.1213 133.631 80.1213C125.233 80.1213 118.425 86.937 118.425 95.3446C118.425 103.752 125.233 110.568 133.631 110.568Z" fill="#FFBC66"/>
<path d="M133.631 99.424C132.618 99.424 131.796 100.247 131.796 101.262C131.796 102.276 132.618 103.099 133.631 103.099C134.645 103.099 135.467 102.276 135.467 101.262C135.467 100.247 134.645 99.424 133.631 99.424Z" fill="#202228"/>
<path d="M131.796 95.7381C131.796 96.753 132.616 97.5757 133.629 97.5757C134.641 97.5757 135.462 96.753 135.462 95.7381L135.462 89.4279C135.462 88.413 134.641 87.5903 133.629 87.5903C132.616 87.5903 131.796 88.413 131.796 89.4279L131.796 95.7381Z" fill="#202228"/>
<path fill-rule="evenodd" clip-rule="evenodd" d="M99.968 74.6313C93.6739 68.3303 83.4692 68.3303 77.1751 74.6313C76.3342 75.473 74.9709 75.473 74.13 74.6313C73.2892 73.7895 73.2892 72.4247 74.13 71.5829C82.1059 63.5984 95.0372 63.5984 103.013 71.5829C103.854 72.4247 103.854 73.7895 103.013 74.6313C102.172 75.473 100.809 75.473 99.968 74.6313Z" fill="#282A32"/>
<rect width="19.2256" height="4.30866" rx="2.15433" transform="matrix(0.706722 0.707491 -0.706722 0.707491 69.2548 44.188)" fill="#282A32"/>
<rect width="19.2256" height="4.30866" rx="2.15433" transform="matrix(0.706722 -0.707491 0.706722 0.707491 66.301 57.79)" fill="#282A32"/>
<rect width="19.2256" height="4.30866" rx="2.15433" transform="matrix(0.706722 0.707491 -0.706722 0.707491 96.1022 44.188)" fill="#282A32"/>
<rect width="19.2256" height="4.30866" rx="2.15433" transform="matrix(0.706722 -0.707491 0.706722 0.707491 93.1484 57.79)" fill="#282A32"/>
</svg>
