<svg viewBox="0 -2 13 11" fill="none" xmlns="http://www.w3.org/2000/svg">
<path fill-rule="evenodd" clip-rule="evenodd" d="M8.66667 2C8.66667 1.63181 8.36819 1.33333 8 1.33333L2 1.33333C1.63181 1.33333 1.33333 1.63181 1.33333 2L1.33333 7.33333C1.33333 7.70152 1.63181 8 2 8L8 8C8.36819 8 8.66667 7.70152 8.66667 7.33333L8.66667 2ZM1.33333 0C0.596954 0 0 0.596954 0 1.33333L0 8C0 8.73638 0.596954 9.33333 1.33333 9.33333L8.66667 9.33333C9.40305 9.33333 10 8.73638 10 8L12.4191 8.96763C12.857 9.14279 13.3333 8.82029 13.3333 8.34864L13.3333 4.66667H12L12 6.87086C12 7.09838 11.7771 7.25903 11.5613 7.18709L10 6.66667L10 2.66667L11.5613 2.14625C11.7771 2.0743 12 2.23496 12 2.46248V4.66667H13.3333V1.22935C13.3333 0.782779 12.9028 0.46248 12.4751 0.590803L10 1.33333C10 0.596954 9.40305 0 8.66667 0L1.33333 0Z" fill="black"/>
</svg>
